# xmcd CD database file
# Copyright (C) 1996 Ti Kan
#
# Track frame offsets:
# 	150
# 	15000
# 	28562
# 	40912
# 	52072
# 	66275
# 	79182
# 	91610
# 	103522
# 	115202
#
# Disc length: 1688 seconds
#
# Revision: 1
# Processed by: cddbd v1.4b41PL1 Copyright (c) Steve Scherf et al.
# Submitted via: DiscPlay 3.4.1
#
DISCID=6f06960a
DTITLE=Gene Autry - Gene Autry - Columbia Historic Edition
DYEAR=1900
DGENRE=
TTITLE0=Tumbling Tumbleweeds
TTITLE1=I'll Go Ridin' Down That Old Texas Trail
TTITLE2=It Makes No Difference Now
TTITLE3=There's a New Moon Over My Shoulder
TTITLE4=Amapola
TTITLE5=Ridin' Down the Canyon
TTITLE6=Deep In The Heart Of Texas
TTITLE7=Same Old Fasioned Girl
TTITLE8=(There's Nothing Like A) Good Old-Fasioned Hoedown
TTITLE9=Don't Fence Me In
EXTD=
EXTT0=
EXTT1=
EXTT2=
EXTT3=
EXTT4=
EXTT5=
EXTT6=
EXTT7=
EXTT8=
EXTT9=
PLAYORDER=
